<?xml version="1.0" standalone="no"?>
<!DOCTYPE svg PUBLIC "-//W3C//DTD SVG 20010904//EN"
 "http://www.w3.org/TR/2001/REC-SVG-20010904/DTD/svg10.dtd">
<svg version="1.0" xmlns="http://www.w3.org/2000/svg"
 width="487.000000pt" height="487.000000pt" viewBox="0 0 487.000000 487.000000"
 preserveAspectRatio="xMidYMid meet">
<metadata>
Created by potrace 1.16, written by Peter Selinger 2001-2019
</metadata>
<g transform="translate(0.000000,487.000000) scale(0.100000,-0.100000)"
fill="#000000" stroke="none">
<path fill="#000000" d="M2245 4810 c-650 -48 -1261 -362 -1669 -855 -280 -338 -452 -716
-527 -1155 -20 -117 -23 -168 -23 -380 1 -204 4 -267 23 -375 74 -440 230
-786 512 -1140 148 -186 310 -332 534 -482 575 -385 1288 -496 1969 -309 798
220 1442 867 1660 1666 64 233 80 364 80 635 0 203 -3 262 -23 380 -71 433
-232 793 -507 1135 -312 387 -759 678 -1239 805 -241 64 -549 93 -790 75z
m505 -475 c378 -67 683 -212 959 -458 561 -502 781 -1264 575 -1996 -100 -355
-287 -655 -568 -909 -280 -253 -596 -405 -986 -473 -178 -31 -444 -31 -625 0
-531 92 -947 348 -1265 776 -441 596 -492 1439 -125 2096 206 370 554 682 942
844 339 143 723 185 1093 120z"/>
<path d="M2320 3373 c-39 -16 -1081 -1049 -1131 -1119 -42 -61 -56 -123 -41
-179 17 -64 49 -108 102 -141 38 -24 56 -29 110 -29 43 0 78 6 105 19 26 13
200 178 495 473 l455 453 440 -440 c242 -243 462 -455 490 -473 43 -28 58 -32
115 -32 98 0 166 40 206 123 25 49 24 135 0 187 -22 45 -1093 1114 -1155 1152
-43 27 -136 30 -191 6z"/>
</g>
</svg>
